<?xml version="1.0"?>
<svg xmlns="http://www.w3.org/2000/svg" enable-background="new 0 0 256 112.9" viewBox="0 0 256 112.9" width="200" height="88"><g transform="translate(-178 -307.103)"><g fill="#d9dada" transform="translate(179.181 320.081)"><path d="m0 65.5h20v-64.2l-20 5.5z"/><path d="m47.4 18.1v-8.3l-20-7.2v63h20v-23.8l8.2-8.6 16.6 32.4h24.9l-28-46.6 14.9-15.9-31.2 8.8z"/><path d="m137.5 19.2c-11.2-3.1-22.3-4.2-22.3-10.2 0-.7.1-1.4.4-2.1l-17.8-6.9c-1.8 3.2-2.7 6.7-2.7 10.3 0 14.1 11.5 19 22.5 22.2 11.1 3.1 22 4.4 22 11.2 0 5.7-6.2 7.9-12.2 7.9-8.5 0-14.1-2.9-14.5-12h-20c.1 19.7 15.7 27.4 33.3 27.4 16.9 0 33.5-6.2 33.5-25.7.1-13.8-11.1-19-22.2-22.1z"/></g><g transform="translate(234.202 308.748)"><path d="m8.8 18.2 17.1-9 5.5 2.8z" fill="#005477"/><path d="m8.8 18.2-3.4-3.8-5.4 6.3z" fill="#006f9d"/><path d="m8.8 18.2-3.4-3.8 20.5-5.2z" fill="#0088c1"/><path d="m12.4 6.1-7 8.2 20.5-5.2-2.2-9.1z" fill="#009ee3"/><path d="m34.9 0-3.6 12-5.5-2.8-2.1-9.2z" fill="#00b1eb"/><path d="m31.3 12 11.3-12h-7.7z" fill="#5bc5f2"/><path d="m12.4 6.1 5.3-6.1h5.9z" fill="#00b1eb"/></g><g transform="translate(206.6 308.748)"><path d="m20 19.3-4.9-5.7 4.9-8.4z" fill="#006f9d"/><path d="m20 19.3-4.9-5.7-15.1-2.7v1.1z" fill="#005477"/><path d="m20 0-12.7 12.2 7.8 1.4 4.9-8.4z" fill="#009ee3"/><path d="m0 0 4.2 2.9 3.1 9.3-7.3-1.3z" fill="#0088c1"/><path d="m20 0-15.8 2.9-4.2-2.9z" fill="#5bc5f2"/><path d="m20 0-15.8 2.9 3.1 9.3z" fill="#00b1eb"/></g><g transform="translate(179.181 308.748)"><path d="m0 11.2 8.3 1.5 1.7-.8-10-10.2z" fill="#0088c1"/><path d="m0 16.4 10.1-4.6 10-.9z" fill="#005477"/><path d="m0 0 15.8 2.9-5.8 8.9-10-10.1z" fill="#00b1eb"/><path d="m20 0-4.2 2.9-5.8 8.9 10-.9z" fill="#0088c1"/><path d="m0 0 15.8 2.9 4.2-2.9z" fill="#5bc5f2"/><path d="m0 16.4 8.3-3.7-8.3-1.6z" fill="#006f9d"/></g><g transform="translate(277.89 307.103)"><path d="m.2 11.7 17.5 6.9.1-.1 2-6z" fill="#005477"/><path d="m19.8 12.3-2 6c1.8-2.2 5.4-2.9 8.4-2.9h.8l4.1-9.1z" fill="#0088c1"/><path d="m9.5 3.8c-3.8 1.7-7 4.4-9.5 7.7l.2.1 19.7.7z" fill="#0088c1"/><path d="m19.8 12.3 11.2-6-21.4-2.4z" fill="#009ee3"/><path d="m26.9 0c-6 .1-11.9 1.4-17.4 3.8l21.6 2.5z" fill="#00b1eb"/><path d="m54 10.8c-2-2.5-4.4-4.7-7.2-6.2l-15.7 1.7z" fill="#00b1eb"/><path d="m31.1 6.3-4.2 9.2c1.4 0 2.8.2 4.1.5l23-5.3z" fill="#009ee3"/><path d="m54 10.8-23 5.3c4.3 1 7.8 3.6 7.6 8.7z" fill="#0088c1"/><path d="m54 10.8-15.4 14 16.8-5.7z" fill="#006f9d"/><path d="m55.4 19.1 3.2 5.7c.1-5-1.5-10-4.6-14z" fill="#0088c1"/><path d="m38.6 24.8h20l-3.2-5.7z" fill="#005477"/></g><path d="m324.7 311.7c-5.8-3.1-12.4-4.7-19-4.6h-.9l4.1 6.3z" fill="#5bc5f2"/><g fill="#8196a6"><path d="m179.2 385.6h20v-64.3l-20 5.5z"/><path d="m226.6 338.2v-8.3l-20-7.2v63h20v-23.8l8.2-8.6 16.6 32.4h24.9l-28-46.6 14.8-15.8-31.1 8.7z"/><path d="m316.6 339.3c-11.2-3.1-22.3-4.2-22.3-10.1 0-.7.1-1.4.4-2.1l-17.7-6.9c-1.8 3.2-2.7 6.7-2.7 10.3 0 14.1 11.5 19 22.5 22.2 11.1 3.1 22 4.4 22 11.1 0 5.7-6.2 7.9-12.2 7.9-8.5 0-14.1-2.9-14.5-12h-20c.1 19.7 15.7 27.4 33.4 27.4 16.9 0 33.5-6.2 33.5-25.7-.1-13.8-11.2-19-22.4-22.1z"/></g></g><g enable-background="new" fill="#8196a6" transform="translate(-164 -64.103)"><path d="m167.5 171h-1.8v-13.5h1.8z"/><path d="m172.1 161 .1 1.3c.8-1 1.8-1.4 3-1.4 2.1 0 3.2 1.2 3.2 3.6v6.6h-1.7v-6.6c0-.7-.2-1.3-.5-1.6s-.8-.5-1.5-.5c-.6 0-1 .1-1.5.4-.4.3-.7.7-1 1.2v7.2h-1.7v-10h1.6z"/><path d="m180.5 165.9c0-1.5.4-2.8 1.1-3.7s1.7-1.4 2.9-1.4 2.1.4 2.8 1.2v-5.2h1.7v14.2h-1.6l-.1-1.1c-.7.8-1.6 1.3-2.9 1.3-1.2 0-2.1-.5-2.8-1.4-.7-1-1.1-2.2-1.1-3.7zm1.7.2c0 1.1.2 2 .7 2.7.5.6 1.1 1 1.9 1 1.1 0 1.9-.5 2.4-1.5v-4.6c-.5-.9-1.3-1.4-2.4-1.4-.8 0-1.5.3-2 1-.3.6-.6 1.5-.6 2.8z"/><path d="m191.7 158.3c0-.3.1-.5.3-.7s.4-.3.8-.3.6.1.8.3.3.4.3.7-.1.5-.3.7-.4.3-.8.3-.6-.1-.8-.3-.3-.4-.3-.7zm1.8 12.7h-1.7v-10h1.7z"/><path d="m199.6 168.7 2.5-7.7h1.8l-3.6 10h-1.3l-3.6-10h1.8z"/><path d="m205.5 158.3c0-.3.1-.5.3-.7s.4-.3.8-.3.6.1.8.3.3.4.3.7-.1.5-.3.7-.4.3-.8.3-.6-.1-.8-.3-.3-.4-.3-.7zm1.8 12.7h-1.7v-10h1.7z"/><path d="m209.7 165.9c0-1.5.4-2.8 1.1-3.7s1.7-1.4 2.9-1.4 2.1.4 2.8 1.2v-5.2h1.7v14.2h-1.6l-.1-1.1c-.7.8-1.6 1.3-2.9 1.3-1.2 0-2.1-.5-2.8-1.4-.7-1-1.1-2.2-1.1-3.7zm1.7.2c0 1.1.2 2 .7 2.7.5.6 1.1 1 1.9 1 1.1 0 1.9-.5 2.4-1.5v-4.6c-.5-.9-1.3-1.4-2.4-1.4-.8 0-1.5.3-2 1-.4.6-.6 1.5-.6 2.8z"/><path d="m227 170c-.7.8-1.6 1.2-2.9 1.2-1.1 0-1.9-.3-2.4-.9-.6-.6-.8-1.5-.8-2.8v-6.5h1.7v6.5c0 1.5.6 2.3 1.9 2.3s2.2-.5 2.6-1.5v-7.3h1.7v10h-1.8z"/><path d="m235.4 171.2c-1.4 0-2.5-.4-3.3-1.3-.9-.9-1.3-2.1-1.3-3.6v-.3c0-1 .2-1.9.6-2.7s.9-1.4 1.6-1.8 1.4-.7 2.2-.7c1.3 0 2.3.4 3 1.3s1.1 2.1 1.1 3.7v.7h-6.8c0 1 .3 1.8.9 2.4s1.3.9 2.1.9c.6 0 1.1-.1 1.5-.4.4-.2.8-.6 1.1-1l1 .8c-.7 1.3-2 2-3.7 2zm-.2-9c-.7 0-1.3.3-1.7.8-.5.5-.8 1.2-.9 2.1h5v-.1c0-.9-.3-1.5-.7-2-.4-.6-1-.8-1.7-.8z"/><path d="m243.2 171h-1.7v-14.2h1.7z"/><path d="m247.8 171h-1.7v-14.2h1.7z"/><path d="m254.7 171.2c-1.4 0-2.5-.4-3.3-1.3-.9-.9-1.3-2.1-1.3-3.6v-.3c0-1 .2-1.9.6-2.7s.9-1.4 1.6-1.8 1.4-.7 2.2-.7c1.3 0 2.3.4 3 1.3s1.1 2.1 1.1 3.7v.7h-6.8c0 1 .3 1.8.9 2.4s1.3.9 2.1.9c.6 0 1.1-.1 1.5-.4.4-.2.8-.6 1.1-1l1 .8c-.7 1.3-2 2-3.7 2zm-.2-9c-.7 0-1.3.3-1.7.8-.5.5-.8 1.2-.9 2.1h5v-.1c0-.9-.3-1.5-.7-2-.4-.6-1-.8-1.7-.8z"/><path d="m269.6 165c-1.5-.4-2.6-1-3.3-1.6s-1-1.4-1-2.4c0-1.1.4-1.9 1.3-2.6s2-1 3.3-1c.9 0 1.8.2 2.5.5.7.4 1.3.9 1.7 1.5s.6 1.3.6 2.1h-1.8c0-.8-.3-1.5-.8-1.9-.5-.5-1.3-.7-2.2-.7s-1.6.2-2.1.6-.7.9-.7 1.6c0 .6.2 1 .7 1.4s1.3.7 2.4 1 2 .7 2.6 1c.6.4 1.1.8 1.4 1.3s.5 1.1.5 1.8c0 1.1-.4 2-1.3 2.6-.9.7-2 1-3.4 1-.9 0-1.8-.2-2.6-.5-.8-.4-1.4-.8-1.9-1.5-.4-.6-.7-1.3-.7-2.1h1.8c0 .8.3 1.5.9 1.9.6.5 1.4.7 2.4.7.9 0 1.7-.2 2.2-.6s.8-.9.8-1.6-.2-1.2-.7-1.5c-.6-.3-1.4-.7-2.6-1z"/><path d="m276.2 165.9c0-1 .2-1.9.6-2.7s.9-1.4 1.6-1.8 1.5-.6 2.4-.6c1.4 0 2.5.5 3.3 1.4s1.3 2.2 1.3 3.8v.1c0 1-.2 1.9-.6 2.6-.4.8-.9 1.4-1.6 1.8s-1.5.6-2.4.6c-1.4 0-2.5-.5-3.3-1.4s-1.3-2.2-1.3-3.8zm1.7.2c0 1.1.3 2 .8 2.7s1.2 1 2.1 1 1.6-.3 2.1-1 .8-1.6.8-2.9c0-1.1-.3-2-.8-2.7s-1.2-1-2.1-1c-.8 0-1.5.3-2.1 1s-.8 1.6-.8 2.9z"/><path d="m288.3 171v-8.7h-1.6v-1.3h1.6v-1c0-1.1.3-1.9.9-2.5s1.4-.9 2.4-.9c.4 0 .8.1 1.2.2l-.1 1.4c-.3-.1-.6-.1-.9-.1-.6 0-1 .2-1.3.5s-.5.8-.5 1.4v1.1h2.1v1.3h-2.1v8.7h-1.7z"/><path d="m296.4 158.5v2.4h1.9v1.3h-1.9v6.2c0 .4.1.7.2.9.2.2.5.3.9.3.2 0 .5 0 .8-.1v1.4c-.5.1-.9.2-1.3.2-.8 0-1.3-.2-1.7-.7s-.6-1.1-.6-2v-6.2h-1.8v-1.2h1.8v-2.4h1.7z"/><path d="m309.1 168.6 1.9-7.7h1.7l-2.9 10h-1.4l-2.4-7.6-2.4 7.6h-1.4l-2.9-10h1.7l2 7.5 2.3-7.5h1.4z"/><path d="m320.7 171c-.1-.2-.2-.6-.2-1.1-.8.8-1.8 1.2-2.9 1.2-1 0-1.8-.3-2.4-.8-.6-.6-1-1.3-1-2.1 0-1 .4-1.9 1.2-2.4.8-.6 1.9-.9 3.4-.9h1.7v-.8c0-.6-.2-1.1-.5-1.4s-.9-.5-1.6-.5c-.6 0-1.1.2-1.5.5s-.6.7-.6 1.1h-1.7c0-.5.2-1 .5-1.5.4-.5.8-.8 1.4-1.1s1.3-.4 2-.4c1.2 0 2.1.3 2.7.9.7.6 1 1.4 1 2.4v4.6c0 .9.1 1.7.4 2.2v.1zm-2.8-1.3c.5 0 1-.1 1.5-.4s.8-.6 1-1.1v-2.1h-1.3c-2.1 0-3.2.6-3.2 1.8 0 .5.2 1 .5 1.3.4.3.9.5 1.5.5z"/><path d="m329.7 162.5c-.3 0-.5-.1-.8-.1-1.1 0-1.9.5-2.3 1.4v7.1h-1.7v-10h1.7v1.2c.6-.9 1.4-1.3 2.4-1.3.3 0 .6 0 .8.1v1.6z"/><path d="m335.3 171.2c-1.4 0-2.5-.4-3.3-1.3-.9-.9-1.3-2.1-1.3-3.6v-.3c0-1 .2-1.9.6-2.7s.9-1.4 1.6-1.8 1.4-.7 2.2-.7c1.3 0 2.3.4 3 1.3s1.1 2.1 1.1 3.7v.7h-6.8c0 1 .3 1.8.9 2.4s1.3.9 2.1.9c.6 0 1.1-.1 1.5-.4.4-.2.8-.6 1.1-1l1 .8c-.8 1.3-2 2-3.7 2zm-.2-9c-.7 0-1.3.3-1.7.8-.5.5-.8 1.2-.9 2.1h5v-.1c0-.9-.3-1.5-.7-2-.4-.6-1-.8-1.7-.8z"/><path d="m343 171h-1.7v-14.2h1.7z"/><path d="m345.3 165.9c0-1 .2-1.9.6-2.7s.9-1.4 1.6-1.8 1.5-.6 2.4-.6c1.4 0 2.5.5 3.3 1.4s1.3 2.2 1.3 3.8v.1c0 1-.2 1.9-.6 2.6-.4.8-.9 1.4-1.6 1.8s-1.5.6-2.4.6c-1.4 0-2.5-.5-3.3-1.4s-1.3-2.2-1.3-3.8zm1.5-7.6c0-.3.1-.5.3-.7s.4-.3.8-.3.6.1.8.3.3.4.3.7-.1.5-.3.7-.4.3-.8.3-.6-.1-.8-.3-.3-.4-.3-.7zm.3 7.8c0 1.1.3 2 .8 2.7s1.2 1 2.1 1 1.6-.3 2.1-1 .8-1.6.8-2.9c0-1.1-.3-2-.8-2.7s-1.2-1-2.1-1c-.8 0-1.5.3-2.1 1s-.8 1.6-.8 2.9zm3.7-7.8c0-.3.1-.5.3-.7s.4-.3.8-.3.6.1.8.3.3.4.3.7-.1.5-.3.7-.4.3-.8.3-.6-.1-.8-.3-.3-.4-.3-.7z"/><path d="m362.5 168.3c0-.5-.2-.8-.5-1.1s-1-.5-1.8-.7c-.9-.2-1.6-.4-2.1-.7s-.9-.6-1.1-.9c-.2-.4-.4-.8-.4-1.3 0-.8.3-1.5 1-2.1s1.6-.9 2.7-.9 2.1.3 2.8.9 1.1 1.3 1.1 2.3h-1.7c0-.5-.2-.9-.6-1.2s-.9-.5-1.5-.5-1.1.1-1.5.4-.5.6-.5 1.1c0 .4.2.7.5.9s.9.4 1.8.6 1.6.4 2.1.7.9.6 1.2 1 .4.8.4 1.4c0 .9-.4 1.6-1.1 2.2s-1.6.8-2.8.8c-.8 0-1.5-.1-2.1-.4s-1.1-.7-1.5-1.2c-.3-.5-.5-1.1-.5-1.7h1.7c0 .6.3 1 .7 1.4s1 .5 1.7.5c.6 0 1.2-.1 1.6-.4s.4-.6.4-1.1z"/><path d="m372.6 170c-.7.8-1.6 1.2-2.9 1.2-1.1 0-1.9-.3-2.4-.9-.6-.6-.8-1.5-.8-2.8v-6.5h1.7v6.5c0 1.5.6 2.3 1.9 2.3s2.2-.5 2.6-1.5v-7.3h1.7v10h-1.6z"/><path d="m378.5 161 .1 1.3c.8-1 1.8-1.4 3-1.4 2.1 0 3.2 1.2 3.2 3.6v6.6h-1.7v-6.6c0-.7-.2-1.3-.5-1.6s-.8-.5-1.5-.5c-.6 0-1 .1-1.5.4-.4.3-.7.7-1 1.2v7.2h-1.7v-10h1.6z"/><path d="m387 165.9c0-1.6.4-2.8 1.1-3.7s1.7-1.4 2.9-1.4 2.2.4 2.9 1.3l.1-1.1h1.6v9.8c0 1.3-.4 2.3-1.2 3.1-.8.7-1.8 1.1-3.1 1.1-.7 0-1.4-.2-2.1-.5s-1.2-.7-1.6-1.3l.9-1c.7.9 1.6 1.4 2.7 1.4.8 0 1.5-.2 2-.7s.7-1.1.7-2v-.9c-.7.8-1.6 1.2-2.8 1.2s-2.1-.5-2.9-1.4c-.9-1-1.2-2.3-1.2-3.9zm1.7.2c0 1.1.2 2 .7 2.7.5.6 1.1 1 1.9 1 1.1 0 1.9-.5 2.4-1.5v-4.6c-.5-1-1.3-1.4-2.4-1.4-.8 0-1.5.3-2 1-.4.6-.6 1.5-.6 2.8z"/><path d="m402.2 171.2c-1.4 0-2.5-.4-3.3-1.3-.9-.9-1.3-2.1-1.3-3.6v-.3c0-1 .2-1.9.6-2.7s.9-1.4 1.6-1.8 1.4-.7 2.2-.7c1.3 0 2.3.4 3 1.3s1.1 2.1 1.1 3.7v.7h-6.8c0 1 .3 1.8.9 2.4s1.3.9 2.1.9c.6 0 1.1-.1 1.5-.4.4-.2.8-.6 1.1-1l1 .8c-.8 1.3-2 2-3.7 2zm-.2-9c-.7 0-1.3.3-1.7.8-.5.5-.8 1.2-.9 2.1h5v-.1c-.1-.9-.3-1.5-.7-2-.4-.6-1-.8-1.7-.8z"/><path d="m409.7 161 .1 1.3c.8-1 1.8-1.4 3-1.4 2.1 0 3.2 1.2 3.2 3.6v6.6h-1.7v-6.6c0-.7-.2-1.3-.5-1.6s-.8-.5-1.5-.5c-.6 0-1 .1-1.5.4-.4.3-.7.7-1 1.2v7.2h-1.7v-10h1.6z"/></g></svg>
